<svg width="1360" height="315" viewBox="0 0 1360 315" fill="none" xmlns="http://www.w3.org/2000/svg">
<path d="M442.039 149H468.936L445.636 108.811C457.677 102.712 465.808 90.515 465.808 77.0666C465.808 56.2684 449.076 39.5361 428.278 39.5361H384.492V149H409.513V113.033H421.397L442.039 149ZM409.513 62.9926H428.278C435.159 62.9926 440.788 69.0913 440.788 77.0666C440.788 85.0418 435.159 91.1405 428.278 91.1405H409.513V62.9926ZM540.005 151.189C571.436 151.189 596.926 126.482 596.926 94.268C596.926 62.0544 571.436 37.3468 540.005 37.3468C508.573 37.3468 483.083 62.0544 483.083 94.268C483.083 126.482 508.573 151.189 540.005 151.189ZM540.005 126.794C522.178 126.794 508.104 113.815 508.104 94.268C508.104 74.7209 522.178 61.7416 540.005 61.7416C557.831 61.7416 571.905 74.7209 571.905 94.268C571.905 113.815 557.831 126.794 540.005 126.794ZM685.231 149H712.597L675.379 39.5361H643.478L606.261 149H633.627L639.1 131.799H679.758L685.231 149ZM646.606 108.342L659.429 68.1531L672.252 108.342H646.606ZM774.317 39.5361H730.532V149H774.317C804.498 149 827.485 125.231 827.485 94.268C827.485 63.3054 804.498 39.5361 774.317 39.5361ZM774.317 124.918H755.552V63.6181H774.317C791.519 63.6181 803.403 75.5028 803.403 94.268C803.403 113.033 791.519 124.918 774.317 124.918Z" fill="#264861"/>
<path d="M907.701 149H934.598L911.297 108.811C923.338 102.712 931.47 90.515 931.47 77.0666C931.47 56.2684 914.738 39.5361 893.939 39.5361H850.154V149H875.174V113.033H887.059L907.701 149ZM875.174 62.9926H893.939C900.82 62.9926 906.45 69.0913 906.45 77.0666C906.45 85.0418 900.82 91.1405 893.939 91.1405H875.174V62.9926ZM995.64 151.189C1019.72 151.189 1037.86 137.115 1037.86 113.659V39.5361H1012.84V111.47C1012.84 119.757 1008.93 126.794 995.64 126.794C982.348 126.794 978.438 119.757 978.438 111.47V39.5361H953.418V113.659C953.418 137.115 971.557 151.189 995.64 151.189ZM1089.53 124.918V39.5361H1064.51V149H1128.62V124.918H1089.53ZM1173.26 124.918V105.527H1212.36V81.7579H1173.26V63.6181H1216.27V39.5361H1148.24V149H1217.05V124.918H1173.26ZM1278.08 151.189C1301.85 151.189 1318.74 138.679 1318.74 117.568C1318.74 94.4244 1300.13 88.6385 1283.55 83.6344C1266.51 78.4739 1263.85 75.0337 1263.85 70.0296C1263.85 65.651 1267.76 61.7416 1275.58 61.7416C1285.58 61.7416 1290.74 66.5893 1294.5 74.4081L1315.61 62.0544C1307.63 45.9475 1293.56 37.3468 1275.58 37.3468C1256.65 37.3468 1238.83 49.5442 1238.83 70.6551C1238.83 91.6096 1254.78 99.4285 1271.04 103.963C1287.46 108.498 1293.71 111.157 1293.71 117.881C1293.71 122.103 1290.74 126.794 1278.86 126.794C1266.51 126.794 1259.78 120.696 1255.87 111.626L1234.29 124.136C1240.39 140.243 1255.09 151.189 1278.08 151.189Z" fill="#04B1ED"/>
<path d="M408.347 221.029C415.801 221.029 421.952 223.687 426.8 229.004C431.7 234.269 434.15 240.732 434.15 248.395C434.15 256.057 431.7 262.547 426.8 267.864C421.952 273.128 415.801 275.761 408.347 275.761H387.237V221.029H408.347ZM408.347 270.6C414.342 270.6 419.242 268.463 423.047 264.189C426.904 259.915 428.833 254.65 428.833 248.395C428.833 242.14 426.904 236.875 423.047 232.601C419.242 228.326 414.342 226.189 408.347 226.189H392.71V270.6H408.347ZM499.807 275.761L486.984 253.868H471.659V275.761H466.186V221.029H488.078C492.613 221.029 496.471 222.645 499.65 225.876C502.882 229.056 504.498 232.913 504.498 237.448C504.498 241.149 503.377 244.459 501.136 247.378C498.947 250.245 496.132 252.174 492.691 253.164L506.062 275.761H499.807ZM471.659 226.189V248.708H488.078C491.102 248.708 493.682 247.613 495.819 245.424C497.956 243.182 499.025 240.524 499.025 237.448C499.025 234.321 497.956 231.662 495.819 229.473C493.682 227.284 491.102 226.189 488.078 226.189H471.659ZM536.583 221.029H542.056V275.761H536.583V221.029ZM591.977 275.761L571.804 221.029H577.747L594.792 268.489L611.837 221.029H617.779L597.606 275.761H591.977ZM647.522 221.029H652.995V275.761H647.522V221.029ZM723.401 221.029H728.875V275.761H724.183L693.69 231.193V275.761H688.217V221.029H692.908L723.401 265.596V221.029ZM816.343 249.724V252.539C816.343 259.315 813.919 265.049 809.072 269.74C804.224 274.379 797.734 276.699 789.603 276.699C781.315 276.699 774.46 273.962 769.039 268.489C763.618 263.016 760.907 256.318 760.907 248.395C760.907 240.472 763.618 233.774 769.039 228.3C774.46 222.827 781.315 220.091 789.603 220.091C794.659 220.091 799.298 221.315 803.52 223.765C807.742 226.215 811 229.473 813.294 233.539L808.446 236.354C806.726 233.018 804.172 230.359 800.784 228.378C797.395 226.398 793.668 225.407 789.603 225.407C782.774 225.407 777.197 227.623 772.87 232.053C768.544 236.484 766.381 241.931 766.381 248.395C766.381 254.858 768.544 260.305 772.87 264.736C777.197 269.167 782.774 271.382 789.603 271.382C795.753 271.382 800.679 269.844 804.38 266.769C808.081 263.642 810.192 259.68 810.714 254.884H788.977V249.724H816.343ZM907.829 276.699C902.824 276.699 898.524 275.526 894.927 273.181C891.383 270.783 888.907 267.499 887.5 263.329L892.191 260.592C893.181 263.98 895.006 266.639 897.664 268.567C900.322 270.444 903.737 271.382 907.907 271.382C911.973 271.382 915.126 270.496 917.368 268.724C919.661 266.899 920.808 264.502 920.808 261.53C920.808 258.664 919.765 256.5 917.68 255.041C915.595 253.581 912.155 252.07 907.359 250.506C901.678 248.629 897.925 247.118 896.1 245.971C891.93 243.469 889.845 239.846 889.845 235.103C889.845 230.464 891.461 226.815 894.693 224.156C897.925 221.446 901.912 220.091 906.656 220.091C910.93 220.091 914.631 221.211 917.758 223.453C920.886 225.642 923.206 228.457 924.717 231.897L920.104 234.477C917.602 228.431 913.119 225.407 906.656 225.407C903.268 225.407 900.531 226.241 898.446 227.909C896.361 229.577 895.318 231.897 895.318 234.868C895.318 237.579 896.257 239.612 898.133 240.967C900.01 242.322 903.111 243.703 907.438 245.111C909.418 245.788 910.826 246.284 911.66 246.596C912.546 246.857 913.797 247.326 915.413 248.004C917.081 248.629 918.306 249.203 919.088 249.724C919.87 250.193 920.808 250.871 921.902 251.757C923.049 252.591 923.857 253.451 924.326 254.337C924.848 255.171 925.291 256.214 925.656 257.465C926.073 258.664 926.281 259.967 926.281 261.374C926.281 266.013 924.587 269.74 921.199 272.555C917.811 275.318 913.354 276.699 907.829 276.699ZM983.538 276.699C975.25 276.699 968.395 273.962 962.974 268.489C957.553 263.016 954.842 256.318 954.842 248.395C954.842 240.472 957.553 233.774 962.974 228.3C968.395 222.827 975.25 220.091 983.538 220.091C988.594 220.091 993.233 221.315 997.455 223.765C1001.68 226.163 1004.94 229.421 1007.23 233.539L1002.38 236.354C1000.66 233.018 998.107 230.359 994.719 228.378C991.33 226.398 987.603 225.407 983.538 225.407C976.709 225.407 971.132 227.623 966.805 232.053C962.479 236.484 960.316 241.931 960.316 248.395C960.316 254.858 962.479 260.305 966.805 264.736C971.132 269.167 976.709 271.382 983.538 271.382C987.603 271.382 991.33 270.392 994.719 268.411C998.107 266.43 1000.66 263.772 1002.38 260.436L1007.23 263.172C1004.99 267.29 1001.73 270.574 997.455 273.024C993.233 275.474 988.594 276.699 983.538 276.699ZM1074.09 221.029H1079.56V275.761H1074.09V250.193H1044.38V275.761H1038.9V221.029H1044.38V245.033H1074.09V221.029ZM1159.99 268.489C1154.52 273.962 1147.82 276.699 1139.9 276.699C1131.98 276.699 1125.28 273.962 1119.8 268.489C1114.33 262.964 1111.6 256.266 1111.6 248.395C1111.6 240.524 1114.33 233.852 1119.8 228.378C1125.28 222.853 1131.98 220.091 1139.9 220.091C1147.82 220.091 1154.52 222.853 1159.99 228.378C1165.47 233.852 1168.2 240.524 1168.2 248.395C1168.2 256.266 1165.47 262.964 1159.99 268.489ZM1123.64 264.736C1128.01 269.167 1133.44 271.382 1139.9 271.382C1146.36 271.382 1151.78 269.167 1156.16 264.736C1160.54 260.253 1162.73 254.806 1162.73 248.395C1162.73 241.983 1160.54 236.562 1156.16 232.132C1151.78 227.649 1146.36 225.407 1139.9 225.407C1133.44 225.407 1128.01 227.649 1123.64 232.132C1119.26 236.562 1117.07 241.983 1117.07 248.395C1117.07 254.806 1119.26 260.253 1123.64 264.736ZM1245.51 268.489C1240.04 273.962 1233.34 276.699 1225.42 276.699C1217.49 276.699 1210.79 273.962 1205.32 268.489C1199.85 262.964 1197.11 256.266 1197.11 248.395C1197.11 240.524 1199.85 233.852 1205.32 228.378C1210.79 222.853 1217.49 220.091 1225.42 220.091C1233.34 220.091 1240.04 222.853 1245.51 228.378C1250.98 233.852 1253.72 240.524 1253.72 248.395C1253.72 256.266 1250.98 262.964 1245.51 268.489ZM1209.15 264.736C1213.53 269.167 1218.95 271.382 1225.42 271.382C1231.88 271.382 1237.3 269.167 1241.68 264.736C1246.06 260.253 1248.25 254.806 1248.25 248.395C1248.25 241.983 1246.06 236.562 1241.68 232.132C1237.3 227.649 1231.88 225.407 1225.42 225.407C1218.95 225.407 1213.53 227.649 1209.15 232.132C1204.77 236.562 1202.58 241.983 1202.58 248.395C1202.58 254.806 1204.77 260.253 1209.15 264.736ZM1291.23 270.6H1316.25V275.761H1285.75V221.029H1291.23V270.6Z" fill="#264861"/>
<circle cx="157.775" cy="157.775" r="153.927" fill="white"/>
<circle cx="157.5" cy="157.5" r="157.5" fill="#04B1ED"/>
<circle cx="157.499" cy="157.499" r="145.406" fill="white"/>
<mask id="mask0" mask-type="alpha" maskUnits="userSpaceOnUse" x="17" y="17" width="282" height="282">
<circle cx="157.774" cy="157.775" r="140.733" fill="#C4C4C4"/>
</mask>
<g mask="url(#mask0)">
<circle cx="157.774" cy="157.775" r="140.733" fill="#264861"/>
<path d="M41.7798 250.13L80.2615 31.334" stroke="white" stroke-width="21.4398" stroke-dasharray="65.97 5.5"/>
<path d="M271.57 251.23L233.089 32.4346" stroke="white" stroke-width="21.4398" stroke-dasharray="65.97 5.5"/>
<path d="M139.363 231.365L140.779 241.553C123.72 236.053 110.028 222.454 104.527 205.416L114.848 206.851C114.85 206.851 114.852 206.851 114.854 206.851C127.471 208.654 137.56 218.743 139.362 231.361C139.362 231.362 139.363 231.364 139.363 231.365ZM210.902 205.415C205.401 222.454 191.709 236.053 174.65 241.552L176.066 231.365C176.066 231.363 176.066 231.361 176.067 231.36C177.869 218.741 187.959 208.652 200.577 206.851C200.578 206.851 200.579 206.85 200.58 206.85L210.902 205.415ZM157.714 110.496C114.864 110.496 79.7117 145.649 79.7117 188.499C79.7117 231.349 114.864 266.502 157.714 266.502C200.565 266.502 235.717 231.349 235.717 188.499C235.717 145.649 200.565 110.496 157.714 110.496ZM157.714 132.661C180.487 132.661 200.334 146.701 208.933 166.43C196.462 161.027 178.097 155.209 157.714 155.209C137.331 155.209 118.967 161.027 106.495 166.43C115.095 146.701 134.941 132.661 157.714 132.661ZM157.714 199.625C151.581 199.625 146.588 194.632 146.588 188.499C146.588 182.366 151.581 177.373 157.714 177.373C163.848 177.373 168.84 182.366 168.84 188.499C168.84 194.632 163.848 199.625 157.714 199.625Z" fill="#BABABA" stroke="white" stroke-width="4.39791" stroke-linecap="round" stroke-linejoin="bevel"/>
<path d="M216.662 174.709C216.435 173.467 216.13 171.967 215.743 170.397C215.255 168.415 214.626 166.282 213.839 164.412C213.077 162.599 212.071 160.797 210.716 159.718L210.71 159.713L210.703 159.708C207.856 157.488 205.333 156.343 203.121 155.861C200.897 155.377 199.081 155.584 197.692 155.933L197.487 155.984L197.301 156.085C195.287 157.187 194.341 159.897 195.987 161.823C196.175 162.057 196.342 162.254 196.496 162.434C196.837 162.833 197.108 163.151 197.377 163.623L197.417 163.694L197.464 163.76C200.511 168.059 204.689 176.474 204.573 189.639C204.573 189.64 204.573 189.64 204.573 189.641L206.222 189.655C206.137 197.36 208.735 203.903 210.923 209.416C211.799 211.621 212.609 213.661 213.156 215.545L216.662 174.709ZM216.662 174.709C217.089 174.203 217.541 173.615 217.985 172.949C219.682 170.404 221.205 166.802 220.722 162.387L220.624 161.495L221.32 160.928L222.361 162.207C221.32 160.928 221.32 160.928 221.32 160.928L221.321 160.927L221.323 160.925L221.33 160.92L221.351 160.903C221.369 160.889 221.394 160.869 221.426 160.843C221.49 160.793 221.582 160.721 221.699 160.632C221.933 160.453 222.269 160.204 222.686 159.912C223.516 159.331 224.683 158.571 226.018 157.87C227.344 157.174 228.89 156.506 230.47 156.149C232.039 155.793 233.787 155.711 235.408 156.361C236.647 156.858 237.431 157.831 237.919 158.795C238.404 159.753 238.66 160.82 238.801 161.75C238.886 162.312 238.934 162.854 238.958 163.337C239.361 163.316 239.807 163.309 240.281 163.331C242.075 163.415 244.565 163.92 246.315 165.914C248.083 167.927 248.225 170.6 248.064 172.463C248.005 173.143 247.901 173.766 247.792 174.29C248.167 174.435 248.585 174.617 249.018 174.842C250.48 175.6 252.378 176.984 253.107 179.339L253.117 179.371L253.125 179.403C253.742 181.72 253.108 183.989 252.452 185.535C252.23 186.059 251.993 186.527 251.776 186.918C252.108 187.263 252.465 187.698 252.804 188.232C253.857 189.891 254.656 192.392 254.118 195.898L254.117 195.909L254.115 195.919C254.049 196.313 253.866 196.715 253.733 196.99C253.574 197.318 253.366 197.7 253.126 198.117C252.643 198.954 251.986 200.011 251.223 201.204C250.195 202.812 248.948 204.708 247.641 206.696C247.01 207.655 246.365 208.636 245.724 209.616C243.744 212.643 241.793 215.671 240.341 218.13C239.613 219.361 239.027 220.422 238.628 221.252C238.428 221.668 238.288 221.999 238.202 222.248C238.155 222.383 238.133 222.467 238.124 222.507C238.124 222.51 238.125 222.514 238.125 222.518C238.134 222.579 238.152 222.703 238.188 222.917C238.247 223.261 238.336 223.739 238.455 224.347C238.692 225.561 239.042 227.259 239.489 229.375C240.384 233.606 241.662 239.484 243.197 246.456C246.267 260.397 250.361 278.695 254.456 296.899C258.55 315.102 262.644 333.207 265.715 346.762C267.251 353.54 268.53 359.18 269.426 363.125C269.874 365.098 270.226 366.647 270.465 367.703L270.739 368.908L270.81 369.217L270.827 369.295L270.832 369.315L270.833 369.319C270.833 369.321 270.833 369.321 269.225 369.687L270.833 369.321L271.291 371.336H269.225H216.503H214.87L214.854 369.703L216.503 369.687C214.854 369.703 214.854 369.702 214.854 369.701L214.854 369.696L214.854 369.676L214.853 369.596L214.85 369.28L214.838 368.046C214.827 366.965 214.81 365.378 214.789 363.356C214.746 359.312 214.682 353.528 214.6 346.566C214.436 332.64 214.197 314.004 213.898 295.159C213.599 276.313 213.24 257.262 212.837 242.507C212.636 235.128 212.423 228.831 212.202 224.174C212.091 221.844 211.978 219.936 211.865 218.514C211.746 217.023 211.636 216.233 211.571 216L216.662 174.709Z" fill="#FAC0A1" stroke="white" stroke-width="3.29843"/>
<path d="M207.896 368.037H206.212L206.247 366.354L208.877 239.9L208.879 239.83L208.886 239.76L210.526 239.934C208.886 239.76 208.886 239.759 208.886 239.758L208.887 239.755L208.887 239.749L208.889 239.735L208.893 239.702C208.896 239.677 208.901 239.646 208.907 239.61C208.918 239.539 208.935 239.446 208.959 239.334C209.008 239.111 209.087 238.811 209.215 238.452C209.47 237.732 209.918 236.779 210.696 235.73C212.264 233.616 215.098 231.215 220.159 229.502L220.175 229.497L220.19 229.492C224.964 227.981 229.494 227.725 233.167 228.105C235.736 228.357 237.898 228.859 239.423 229.301C240.187 229.522 240.794 229.728 241.216 229.882C241.427 229.959 241.592 230.023 241.707 230.069C241.765 230.092 241.81 230.11 241.843 230.124L241.882 230.14L241.894 230.145L241.899 230.147L241.9 230.148L241.901 230.148C241.901 230.148 241.902 230.149 241.251 231.664L241.902 230.149L242.667 230.478L242.857 231.289L274.298 366.013L274.771 368.037H272.692H207.896Z" fill="#04B1ED" stroke="white" stroke-width="3.29843"/>
<path d="M98.3595 174.159C98.5869 172.918 98.8918 171.417 99.2785 169.848C99.7671 167.865 100.396 165.732 101.183 163.863C101.945 162.05 102.951 160.247 104.306 159.168L104.312 159.163L104.319 159.158C107.166 156.938 109.689 155.793 111.901 155.311C114.125 154.827 115.941 155.035 117.33 155.383L117.535 155.434L117.721 155.536C119.735 156.637 120.681 159.347 119.035 161.273C118.847 161.507 118.68 161.704 118.526 161.884C118.185 162.283 117.914 162.602 117.645 163.073L117.605 163.144L117.558 163.21C114.511 167.509 110.333 175.924 110.449 189.09C110.449 189.09 110.449 189.09 110.449 189.091L108.8 189.105C108.885 196.81 106.287 203.353 104.099 208.866C103.223 211.071 102.413 213.112 101.866 214.995L98.3595 174.159ZM98.3595 174.159C97.9334 173.653 97.4806 173.065 97.0366 172.399C95.3398 169.854 93.8167 166.252 94.3001 161.837L94.3977 160.945L93.7023 160.379L92.6607 161.657C93.7023 160.379 93.702 160.378 93.7017 160.378L93.7008 160.377L93.6986 160.376L93.6921 160.37L93.6708 160.353C93.653 160.339 93.6278 160.319 93.5958 160.293C93.5317 160.243 93.4398 160.171 93.3227 160.082C93.0887 159.903 92.7529 159.654 92.3362 159.362C91.5059 158.781 90.3389 158.021 89.0041 157.32C87.6776 156.624 86.1321 155.957 84.5517 155.599C82.9825 155.244 81.235 155.161 79.6136 155.812C78.3748 156.308 77.591 157.281 77.1029 158.245C76.6179 159.203 76.3616 160.27 76.2207 161.201C76.1357 161.763 76.0884 162.304 76.0637 162.787C75.6614 162.766 75.2147 162.76 74.7413 162.782C72.9473 162.865 70.4565 163.37 68.7066 165.364C66.9392 167.377 66.7965 170.05 66.9581 171.913C67.0171 172.593 67.1209 173.217 67.2304 173.74C66.8549 173.885 66.4369 174.067 66.0038 174.292C64.5418 175.05 62.6439 176.434 61.9149 178.789L61.9051 178.821L61.8966 178.853C61.2803 181.17 61.9138 183.439 62.57 184.985C62.7924 185.509 63.0287 185.977 63.2456 186.368C62.9143 186.713 62.5567 187.148 62.2175 187.682C61.1647 189.341 60.3657 191.842 60.9038 195.349L60.9054 195.359L60.9071 195.369C60.9726 195.763 61.1556 196.166 61.2889 196.441C61.4478 196.768 61.6562 197.151 61.8964 197.567C62.3785 198.404 63.0362 199.461 63.799 200.654C64.8272 202.262 66.0742 204.158 67.3814 206.146C68.0122 207.106 68.6571 208.086 69.2982 209.066C71.2784 212.093 73.2285 215.121 74.6812 217.58C75.4089 218.812 75.9947 219.872 76.3937 220.702C76.5936 221.118 76.7335 221.449 76.8202 221.698C76.8673 221.834 76.8887 221.917 76.8981 221.957C76.8976 221.961 76.8971 221.965 76.8965 221.969C76.888 222.029 76.8703 222.153 76.834 222.367C76.7753 222.711 76.6863 223.189 76.5673 223.797C76.3298 225.011 75.98 226.709 75.5326 228.826C74.6384 233.056 73.3601 238.935 71.8249 245.906C68.7547 259.847 64.6608 278.146 60.5663 296.349C56.4719 314.552 52.3775 332.657 49.3067 346.212C47.7713 352.99 46.4918 358.63 45.5961 362.575C45.1483 364.548 44.7964 366.097 44.5565 367.153L44.2826 368.358L44.2124 368.667L44.1947 368.745L44.1902 368.765L44.1891 368.77C44.1888 368.771 44.1887 368.771 45.7969 369.137L44.1887 368.771L43.7306 370.786H45.7969H98.5187H100.152L100.168 369.153L98.5187 369.137C100.168 369.153 100.168 369.152 100.168 369.151L100.168 369.146L100.168 369.126L100.169 369.046L100.172 368.73L100.184 367.496C100.195 366.415 100.212 364.828 100.233 362.807C100.276 358.763 100.34 352.978 100.422 346.016C100.586 332.091 100.825 313.455 101.124 294.609C101.423 275.763 101.781 256.713 102.185 241.957C102.386 234.578 102.599 228.281 102.82 223.624C102.931 221.294 103.044 219.387 103.157 217.964C103.276 216.473 103.386 215.683 103.451 215.45L98.3595 174.159Z" fill="#FAC0A1" stroke="white" stroke-width="3.29843"/>
<path d="M107.126 369.137H42.3296L73.7714 234.413C73.7714 234.413 77.1188 232.975 82.0204 232.495C85.4874 232.136 89.7912 232.375 94.3341 233.814C103.898 237.05 104.496 242.683 104.496 242.683L107.126 369.137Z" fill="#04B1ED"/>
<path d="M107.126 367.681H108.81L108.775 365.997L106.145 239.544L106.143 239.474L106.136 239.404L104.496 239.578C106.136 239.404 106.136 239.403 106.136 239.401L106.135 239.398L106.135 239.392L106.133 239.379L106.129 239.345C106.126 239.32 106.121 239.29 106.115 239.254C106.104 239.182 106.087 239.089 106.063 238.978C106.014 238.754 105.935 238.454 105.807 238.095C105.552 237.376 105.104 236.423 104.326 235.374C102.758 233.26 99.9237 230.858 94.8627 229.146L94.8474 229.141L94.8319 229.136C90.0584 227.624 85.5276 227.368 81.8551 227.749C79.286 228 77.1244 228.503 75.5993 228.944C74.8353 229.165 74.2281 229.372 73.8061 229.526C73.595 229.603 73.43 229.667 73.3146 229.713C73.2569 229.736 73.2115 229.754 73.179 229.768L73.1399 229.784L73.1276 229.789L73.1234 229.791L73.1217 229.792L73.121 229.792C73.1206 229.792 73.1203 229.792 73.7714 231.307L73.1203 229.792L72.3547 230.121L72.1653 230.933L40.7235 365.657L40.2512 367.681H42.3296H107.126Z" fill="#04B1ED" stroke="white" stroke-width="3.29843"/>
</g>
<circle cx="157.775" cy="188.56" r="9.34555" fill="#04B1ED"/>
</svg>
