<svg width="80" height="80" viewBox="0 0 80 80" fill="none" xmlns="http://www.w3.org/2000/svg">
<g clip-path="url(#clip0)">
<circle cx="40.1278" cy="25.2587" r="24.6425" fill="white"/>
<circle cx="40.0841" cy="25.2145" r="25.2145" fill="#04B1ED"/>
<circle cx="40.084" cy="25.2148" r="23.2783" fill="white"/>
<mask id="mask0" mask-type="alpha" maskUnits="userSpaceOnUse" x="17" y="2" width="46" height="46">
<circle cx="40.1279" cy="25.2588" r="22.5302" fill="#C4C4C4"/>
</mask>
<g mask="url(#mask0)">
<circle cx="40.1279" cy="25.2588" r="22.5302" fill="#264861"/>
<path d="M21.5581 40.046L27.7187 5.01855" stroke="white" stroke-width="3.43234" stroke-dasharray="10.56 0.88"/>
<path d="M58.3462 40.2218L52.1856 5.19434" stroke="white" stroke-width="3.43234" stroke-dasharray="10.56 0.88"/>
<path d="M37.1796 37.0401L37.4063 38.671C34.6753 37.7906 32.4833 35.6135 31.6026 32.8858L33.255 33.1155C33.2552 33.1155 33.2554 33.1156 33.2557 33.1156C35.2758 33.4041 36.891 35.0193 37.1795 37.0394C37.1795 37.0396 37.1795 37.0399 37.1796 37.0401ZM46.98 33.1155L48.6324 32.8857C47.7518 35.6135 45.5597 37.7906 42.8287 38.671L43.0554 37.04C43.0555 37.0398 43.0555 37.0396 43.0555 37.0394C43.3441 35.0193 44.9592 33.4041 46.9794 33.1155C46.9796 33.1155 46.9798 33.1155 46.98 33.1155ZM40.1175 17.69C33.2575 17.69 27.6299 23.3176 27.6299 30.1776C27.6299 37.0375 33.2575 42.6652 40.1175 42.6652C46.9775 42.6652 52.6051 37.0375 52.6051 30.1776C52.6051 23.3176 46.9775 17.69 40.1175 17.69ZM40.1175 21.2383C43.7633 21.2383 46.9406 23.486 48.3173 26.6444C46.3207 25.7795 43.3806 24.848 40.1175 24.848C36.8544 24.848 33.9143 25.7795 31.9178 26.6444C33.2944 23.486 36.4717 21.2383 40.1175 21.2383ZM40.1175 31.9587C39.1356 31.9587 38.3363 31.1594 38.3363 30.1776C38.3363 29.1957 39.1356 28.3964 40.1175 28.3964C41.0994 28.3964 41.8987 29.1957 41.8987 30.1776C41.8987 31.1594 41.0994 31.9587 40.1175 31.9587Z" fill="#BABABA" stroke="white" stroke-width="0.70407" stroke-linecap="round" stroke-linejoin="bevel"/>
<path d="M49.4087 27.2796C49.4706 27.5308 49.5194 27.7711 49.5558 27.9698L48.9945 34.5074C48.907 34.2058 48.7772 33.8792 48.6371 33.5261C48.2866 32.6436 47.8707 31.5961 47.8844 30.3626L47.6204 30.3603C47.6204 30.3602 47.6204 30.36 47.6204 30.3599C47.6389 28.2524 46.9701 26.9052 46.4824 26.217L46.4748 26.2064L46.4684 26.1951C46.4253 26.1196 46.3819 26.0686 46.3273 26.0047C46.3027 25.9758 46.2759 25.9444 46.2458 25.9068C45.9823 25.5985 46.1338 25.1647 46.4562 24.9884L46.4859 24.9721L46.5187 24.9639C46.7412 24.9082 47.0319 24.875 47.3879 24.9524C47.7421 25.0295 48.146 25.2129 48.6018 25.5683L48.6018 25.5683L48.6039 25.57C48.8208 25.7427 48.9818 26.0312 49.1039 26.3215C49.2297 26.6207 49.3305 26.9622 49.4087 27.2796Z" fill="#FAC0A1" stroke="white" stroke-width="0.528053"/>
<path d="M48.1525 58.9209H47.8829L47.8885 58.6514L48.3096 38.4071L48.3098 38.3959L48.311 38.3848L48.5735 38.4126C48.311 38.3848 48.311 38.3846 48.311 38.3843L48.3111 38.3839L48.3112 38.3829L48.3114 38.3808L48.3121 38.3754L48.3143 38.3608C48.3161 38.3493 48.3188 38.3344 48.3227 38.3165C48.3305 38.2807 48.3432 38.2328 48.3636 38.1753C48.4045 38.0601 48.4762 37.9075 48.6007 37.7396C48.8518 37.4012 49.3055 37.0167 50.1157 36.7426L50.1157 36.7425L50.1207 36.7409C50.8849 36.499 51.6102 36.458 52.1982 36.5189C52.6095 36.5592 52.9555 36.6396 53.1997 36.7103C53.322 36.7457 53.4192 36.7787 53.4867 36.8034C53.5205 36.8157 53.5469 36.8259 53.5654 36.8333L53.5871 36.8421L53.5934 36.8447L53.5954 36.8455L53.596 36.8458L53.5963 36.8459L53.5964 36.846C53.5965 36.846 53.5965 36.846 53.4923 37.0886L53.5965 36.846L53.7191 36.8987L53.7494 37.0286L58.783 58.5968L58.8586 58.9209H58.5259H48.1525Z" fill="#04B1ED" stroke="white" stroke-width="0.528053"/>
<path d="M30.7636 27.1907C30.7017 27.442 30.6529 27.6822 30.6165 27.8809L31.1779 34.4186C31.2654 34.117 31.3951 33.7903 31.5353 33.4372C31.8857 32.5547 32.3016 31.5073 32.288 30.2738L32.552 30.2714C32.552 30.2713 32.552 30.2712 32.552 30.2711C32.5335 28.1635 33.2023 26.8163 33.69 26.1281L33.6975 26.1175L33.704 26.1062C33.747 26.0307 33.7905 25.9798 33.845 25.9158C33.8696 25.887 33.8965 25.8555 33.9265 25.818C34.1901 25.5096 34.0386 25.0759 33.7161 24.8995L33.6864 24.8833L33.6536 24.8751C33.4312 24.8193 33.1405 24.7861 32.7845 24.8636C32.4302 24.9407 32.0263 25.124 31.5706 25.4794L31.5706 25.4794L31.5685 25.4811C31.3515 25.6538 31.1906 25.9424 31.0685 26.2326C30.9426 26.5319 30.8419 26.8734 30.7636 27.1907Z" fill="#FAC0A1" stroke="white" stroke-width="0.528053"/>
<path d="M32.0199 59.0953H21.6465L26.6801 37.5271C26.6801 37.5271 27.216 37.2968 28.0007 37.2201C28.5557 37.1625 29.2447 37.2009 29.972 37.4311C31.5031 37.9492 31.5988 38.8511 31.5988 38.8511L32.0199 59.0953Z" fill="#04B1ED"/>
<path d="M32.0199 58.8633H32.2895L32.2839 58.5937L31.8628 38.3495L31.8626 38.3383L31.8614 38.3272L31.5988 38.355C31.8614 38.3272 31.8614 38.3269 31.8613 38.3267L31.8613 38.3263L31.8612 38.3253L31.8609 38.3231L31.8602 38.3178L31.8581 38.3031C31.8563 38.2917 31.8536 38.2768 31.8497 38.2589C31.8419 38.2231 31.8292 38.1751 31.8088 38.1177C31.7679 38.0025 31.6962 37.8499 31.5716 37.682C31.3206 37.3436 30.8669 36.9591 30.0566 36.6849L30.0566 36.6849L30.0517 36.6833C29.2875 36.4414 28.5621 36.4004 27.9742 36.4613C27.5629 36.5016 27.2169 36.582 26.9727 36.6526C26.8504 36.688 26.7532 36.7211 26.6856 36.7457C26.6518 36.7581 26.6254 36.7683 26.6069 36.7756L26.5852 36.7845L26.579 36.7871L26.577 36.7879L26.5763 36.7882L26.5761 36.7883L26.5759 36.7884C26.5759 36.7884 26.5758 36.7884 26.6801 37.031L26.5758 36.7884L26.4533 36.8411L26.423 36.971L21.3894 58.5392L21.3137 58.8633H21.6465H32.0199Z" fill="#04B1ED" stroke="white" stroke-width="0.528053"/>
</g>
<circle cx="40.128" cy="30.1876" r="1.49615" fill="#04B1ED"/>
<path d="M18.1688 64.2061H19.622L18.3631 62.0347C19.0137 61.7052 19.453 61.0462 19.453 60.3196C19.453 59.1959 18.549 58.2919 17.4253 58.2919H15.0596V64.2061H16.4114V62.2628H17.0535L18.1688 64.2061ZM16.4114 59.5592H17.4253C17.797 59.5592 18.1012 59.8887 18.1012 60.3196C18.1012 60.7505 17.797 61.08 17.4253 61.08H16.4114V59.5592ZM23.4617 64.3243C25.1599 64.3243 26.5371 62.9894 26.5371 61.249C26.5371 59.5085 25.1599 58.1736 23.4617 58.1736C21.7635 58.1736 20.3863 59.5085 20.3863 61.249C20.3863 62.9894 21.7635 64.3243 23.4617 64.3243ZM23.4617 63.0063C22.4985 63.0063 21.7382 62.3051 21.7382 61.249C21.7382 60.1929 22.4985 59.4916 23.4617 59.4916C24.4249 59.4916 25.1853 60.1929 25.1853 61.249C25.1853 62.3051 24.4249 63.0063 23.4617 63.0063ZM31.3081 64.2061H32.7867L30.7758 58.2919H29.0523L27.0414 64.2061H28.52L28.8157 63.2767H31.0124L31.3081 64.2061ZM29.2212 62.0094L29.9141 59.838L30.6069 62.0094H29.2212ZM36.1213 58.2919H33.7556V64.2061H36.1213C37.7519 64.2061 38.9939 62.9218 38.9939 61.249C38.9939 59.5761 37.7519 58.2919 36.1213 58.2919ZM36.1213 62.9049H35.1074V59.593H36.1213C37.0507 59.593 37.6928 60.2351 37.6928 61.249C37.6928 62.2628 37.0507 62.9049 36.1213 62.9049Z" fill="#264861"/>
<path d="M43.3278 64.2061H44.781L43.5222 62.0347C44.1727 61.7052 44.6121 61.0462 44.6121 60.3196C44.6121 59.1959 43.708 58.2919 42.5843 58.2919H40.2187V64.2061H41.5705V62.2628H42.2126L43.3278 64.2061ZM41.5705 59.5592H42.5843C42.9561 59.5592 43.2603 59.8887 43.2603 60.3196C43.2603 60.7505 42.9561 61.08 42.5843 61.08H41.5705V59.5592ZM48.0791 64.3243C49.3802 64.3243 50.3602 63.5639 50.3602 62.2966V58.2919H49.0084V62.1783C49.0084 62.6261 48.7972 63.0063 48.0791 63.0063C47.3609 63.0063 47.1497 62.6261 47.1497 62.1783V58.2919H45.7979V62.2966C45.7979 63.5639 46.7779 64.3243 48.0791 64.3243ZM53.1517 62.9049V58.2919H51.7998V64.2061H55.2639V62.9049H53.1517ZM57.6758 62.9049V61.8573H59.788V60.5731H57.6758V59.593H59.9992V58.2919H56.3239V64.2061H60.0414V62.9049H57.6758ZM63.3388 64.3243C64.623 64.3243 65.5355 63.6484 65.5355 62.5078C65.5355 61.2574 64.5301 60.9448 63.6345 60.6744C62.7136 60.3956 62.5699 60.2098 62.5699 59.9394C62.5699 59.7028 62.7812 59.4916 63.2036 59.4916C63.7443 59.4916 64.0231 59.7535 64.2259 60.176L65.3665 59.5085C64.9356 58.6383 64.1752 58.1736 63.2036 58.1736C62.1813 58.1736 61.2181 58.8326 61.2181 59.9732C61.2181 61.1053 62.0799 61.5278 62.9586 61.7728C63.8457 62.0178 64.1837 62.1614 64.1837 62.5247C64.1837 62.7529 64.0231 63.0063 63.381 63.0063C62.7136 63.0063 62.3503 62.6768 62.1391 62.1868L60.9731 62.8627C61.3026 63.7329 62.0968 64.3243 63.3388 64.3243Z" fill="#04B1ED"/>
<path d="M16.3482 68.6894C16.7509 68.6894 17.0832 68.833 17.3451 69.1203C17.6099 69.4047 17.7422 69.7539 17.7422 70.1679C17.7422 70.5819 17.6099 70.9326 17.3451 71.2198C17.0832 71.5043 16.7509 71.6465 16.3482 71.6465H15.2076V68.6894H16.3482ZM16.3482 71.3677C16.672 71.3677 16.9368 71.2522 17.1424 71.0213C17.3508 70.7903 17.455 70.5059 17.455 70.1679C17.455 69.83 17.3508 69.5455 17.1424 69.3146C16.9368 69.0837 16.672 68.9682 16.3482 68.9682H15.5033V71.3677H16.3482ZM21.2896 71.6465L20.5968 70.4636H19.7688V71.6465H19.4731V68.6894H20.6559C20.9009 68.6894 21.1094 68.7767 21.2811 68.9513C21.4558 69.1231 21.5431 69.3315 21.5431 69.5765C21.5431 69.7765 21.4825 69.9553 21.3614 70.113C21.2431 70.2679 21.091 70.3721 20.9052 70.4256L21.6275 71.6465H21.2896ZM19.7688 68.9682V70.1848H20.6559C20.8193 70.1848 20.9587 70.1257 21.0741 70.0074C21.1896 69.8863 21.2473 69.7427 21.2473 69.5765C21.2473 69.4075 21.1896 69.2639 21.0741 69.1456C20.9587 69.0273 20.8193 68.9682 20.6559 68.9682H19.7688ZM23.2766 68.6894H23.5723V71.6465H23.2766V68.6894ZM26.2694 71.6465L25.1795 68.6894H25.5006L26.4215 71.2536L27.3424 68.6894H27.6635L26.5736 71.6465H26.2694ZM29.2704 68.6894H29.5662V71.6465H29.2704V68.6894ZM33.3701 68.6894H33.6658V71.6465H33.4124L31.7648 69.2386V71.6465H31.4691V68.6894H31.7226L33.3701 71.0973V68.6894ZM38.3916 70.2398V70.3918C38.3916 70.7579 38.2607 71.0677 37.9988 71.3212C37.7368 71.5719 37.3862 71.6972 36.9469 71.6972C36.4991 71.6972 36.1287 71.5493 35.8359 71.2536C35.543 70.9579 35.3965 70.596 35.3965 70.1679C35.3965 69.7399 35.543 69.378 35.8359 69.0823C36.1287 68.7866 36.4991 68.6387 36.9469 68.6387C37.2201 68.6387 37.4707 68.7049 37.6988 68.8372C37.9269 68.9696 38.103 69.1456 38.2269 69.3653L37.965 69.5174C37.872 69.3371 37.734 69.1935 37.551 69.0865C37.3679 68.9795 37.1665 68.926 36.9469 68.926C36.5779 68.926 36.2766 69.0456 36.0429 69.285C35.8091 69.5244 35.6922 69.8187 35.6922 70.1679C35.6922 70.5172 35.8091 70.8115 36.0429 71.0508C36.2766 71.2902 36.5779 71.4099 36.9469 71.4099C37.2792 71.4099 37.5453 71.3268 37.7453 71.1607C37.9452 70.9917 38.0593 70.7777 38.0875 70.5186H36.9131V70.2398H38.3916ZM43.3345 71.6972C43.0641 71.6972 42.8318 71.6338 42.6374 71.5071C42.4459 71.3775 42.3122 71.2001 42.2361 70.9748L42.4896 70.8269C42.5431 71.01 42.6417 71.1536 42.7853 71.2578C42.9289 71.3592 43.1134 71.4099 43.3387 71.4099C43.5584 71.4099 43.7287 71.362 43.8498 71.2663C43.9738 71.1677 44.0357 71.0382 44.0357 70.8776C44.0357 70.7227 43.9794 70.6059 43.8667 70.527C43.7541 70.4482 43.5682 70.3665 43.3091 70.282C43.0021 70.1806 42.7994 70.0989 42.7008 70.037C42.4755 69.9018 42.3628 69.7061 42.3628 69.4498C42.3628 69.1991 42.4502 69.002 42.6248 68.8584C42.7994 68.7119 43.0148 68.6387 43.2711 68.6387C43.502 68.6387 43.702 68.6992 43.871 68.8203C44.0399 68.9386 44.1653 69.0907 44.2469 69.2766L43.9977 69.416C43.8625 69.0893 43.6203 68.926 43.2711 68.926C43.088 68.926 42.9402 68.971 42.8275 69.0611C42.7149 69.1513 42.6586 69.2766 42.6586 69.4371C42.6586 69.5836 42.7093 69.6934 42.8106 69.7666C42.912 69.8398 43.0796 69.9145 43.3133 69.9905C43.4204 70.0271 43.4964 70.0539 43.5415 70.0708C43.5893 70.0849 43.6569 70.1102 43.7442 70.1468C43.8344 70.1806 43.9005 70.2116 43.9428 70.2398C43.985 70.2651 44.0357 70.3017 44.0949 70.3496C44.1568 70.3946 44.2005 70.4411 44.2258 70.489C44.254 70.5341 44.2779 70.5904 44.2976 70.658C44.3202 70.7227 44.3314 70.7932 44.3314 70.8692C44.3314 71.1198 44.2399 71.3212 44.0568 71.4733C43.8738 71.6225 43.633 71.6972 43.3345 71.6972ZM47.4249 71.6972C46.9771 71.6972 46.6068 71.5493 46.3139 71.2536C46.021 70.9579 45.8746 70.596 45.8746 70.1679C45.8746 69.7399 46.021 69.378 46.3139 69.0823C46.6068 68.7866 46.9771 68.6387 47.4249 68.6387C47.6981 68.6387 47.9488 68.7049 48.1769 68.8372C48.405 68.9668 48.581 69.1428 48.7049 69.3653L48.443 69.5174C48.3501 69.3371 48.2121 69.1935 48.029 69.0865C47.846 68.9795 47.6446 68.926 47.4249 68.926C47.056 68.926 46.7546 69.0456 46.5209 69.285C46.2871 69.5244 46.1703 69.8187 46.1703 70.1679C46.1703 70.5172 46.2871 70.8115 46.5209 71.0508C46.7546 71.2902 47.056 71.4099 47.4249 71.4099C47.6446 71.4099 47.846 71.3564 48.029 71.2494C48.2121 71.1424 48.3501 70.9987 48.443 70.8185L48.7049 70.9664C48.5838 71.1888 48.4078 71.3663 48.1769 71.4986C47.9488 71.631 47.6981 71.6972 47.4249 71.6972ZM52.3173 68.6894H52.613V71.6465H52.3173V70.2651H50.712V71.6465H50.4163V68.6894H50.712V69.9863H52.3173V68.6894ZM56.9586 71.2536C56.6629 71.5493 56.301 71.6972 55.8729 71.6972C55.4449 71.6972 55.083 71.5493 54.7873 71.2536C54.4916 70.9551 54.3437 70.5932 54.3437 70.1679C54.3437 69.7427 54.4916 69.3822 54.7873 69.0865C55.083 68.788 55.4449 68.6387 55.8729 68.6387C56.301 68.6387 56.6629 68.788 56.9586 69.0865C57.2543 69.3822 57.4022 69.7427 57.4022 70.1679C57.4022 70.5932 57.2543 70.9551 56.9586 71.2536ZM54.9943 71.0508C55.2308 71.2902 55.5237 71.4099 55.8729 71.4099C56.2222 71.4099 56.515 71.2902 56.7516 71.0508C56.9882 70.8086 57.1065 70.5143 57.1065 70.1679C57.1065 69.8215 56.9882 69.5286 56.7516 69.2893C56.515 69.0471 56.2222 68.926 55.8729 68.926C55.5237 68.926 55.2308 69.0471 54.9943 69.2893C54.7577 69.5286 54.6394 69.8215 54.6394 70.1679C54.6394 70.5143 54.7577 70.8086 54.9943 71.0508ZM61.5789 71.2536C61.2832 71.5493 60.9213 71.6972 60.4932 71.6972C60.0652 71.6972 59.7033 71.5493 59.4076 71.2536C59.1118 70.9551 58.964 70.5932 58.964 70.1679C58.964 69.7427 59.1118 69.3822 59.4076 69.0865C59.7033 68.788 60.0652 68.6387 60.4932 68.6387C60.9213 68.6387 61.2832 68.788 61.5789 69.0865C61.8746 69.3822 62.0225 69.7427 62.0225 70.1679C62.0225 70.5932 61.8746 70.9551 61.5789 71.2536ZM59.6146 71.0508C59.8511 71.2902 60.144 71.4099 60.4932 71.4099C60.8425 71.4099 61.1353 71.2902 61.3719 71.0508C61.6085 70.8086 61.7268 70.5143 61.7268 70.1679C61.7268 69.8215 61.6085 69.5286 61.3719 69.2893C61.1353 69.0471 60.8425 68.926 60.4932 68.926C60.144 68.926 59.8511 69.0471 59.6146 69.2893C59.378 69.5286 59.2597 69.8215 59.2597 70.1679C59.2597 70.5143 59.378 70.8086 59.6146 71.0508ZM64.049 71.3677H65.4008V71.6465H63.7533V68.6894H64.049V71.3677Z" fill="#264861"/>
<path d="M16.7599 77.0011H16.084V76.3252H15.4926V77.0011H14.8167V77.5926H15.4926V78.2685H16.084V77.5926H16.7599V77.0011ZM18.8407 75.8183L18.0677 76.0971L18.2324 76.6759L18.7563 76.5322V78.7754H19.4322V75.8183H18.8407ZM23.5735 79.1978H24.2071C23.9114 78.6064 23.7424 77.9728 23.7424 77.2968C23.7424 76.6209 23.9114 75.9873 24.2071 75.3959H23.5735C23.2777 75.9873 23.1088 76.6209 23.1088 77.2968C23.1088 77.9728 23.2777 78.6064 23.5735 79.1978ZM25.349 75.8183V76.4689H26.5403L25.6109 78.7754H26.3291L27.2923 76.3844V75.8183H25.349ZM28.4761 75.8183V76.4689H29.6674L28.738 78.7754H29.4562L30.4193 76.3844V75.8183H28.4761ZM33.3921 77.2335C33.5653 77.0983 33.6751 76.904 33.6751 76.6378C33.6751 76.0633 33.2358 75.7592 32.6908 75.7592C32.1459 75.7592 31.7065 76.0633 31.7065 76.6378C31.7065 76.904 31.8164 77.0983 31.9896 77.2335C31.7403 77.394 31.6051 77.6517 31.6051 77.9432C31.6051 78.4839 31.9938 78.8345 32.6908 78.8345C33.3878 78.8345 33.7765 78.4839 33.7765 77.9432C33.7765 77.6517 33.6413 77.394 33.3921 77.2335ZM32.6908 76.3928C32.8809 76.3928 32.9992 76.5153 32.9992 76.6801C32.9992 76.8448 32.8809 76.9673 32.6908 76.9673C32.5007 76.9673 32.3824 76.8448 32.3824 76.6801C32.3824 76.5153 32.5007 76.3928 32.6908 76.3928ZM32.6908 78.2009C32.4542 78.2009 32.281 78.0699 32.281 77.846C32.281 77.6221 32.4542 77.4912 32.6908 77.4912C32.9274 77.4912 33.1006 77.6221 33.1006 77.846C33.1006 78.0699 32.9274 78.2009 32.6908 78.2009ZM35.6362 79.1978C35.9319 78.6064 36.1008 77.9728 36.1008 77.2968C36.1008 76.6209 35.9319 75.9873 35.6362 75.3959H35.0025C35.2982 75.9873 35.4672 76.6209 35.4672 77.2968C35.4672 77.9728 35.2982 78.6064 35.0025 79.1978H35.6362ZM41.3954 77.2335C41.5686 77.0983 41.6784 76.904 41.6784 76.6378C41.6784 76.0633 41.2391 75.7592 40.6941 75.7592C40.1492 75.7592 39.7098 76.0633 39.7098 76.6378C39.7098 76.904 39.8196 77.0983 39.9928 77.2335C39.7436 77.394 39.6084 77.6517 39.6084 77.9432C39.6084 78.4839 39.9971 78.8345 40.6941 78.8345C41.3911 78.8345 41.7798 78.4839 41.7798 77.9432C41.7798 77.6517 41.6446 77.394 41.3954 77.2335ZM40.6941 76.3928C40.8842 76.3928 41.0025 76.5153 41.0025 76.6801C41.0025 76.8448 40.8842 76.9673 40.6941 76.9673C40.504 76.9673 40.3857 76.8448 40.3857 76.6801C40.3857 76.5153 40.504 76.3928 40.6941 76.3928ZM40.6941 78.2009C40.4575 78.2009 40.2843 78.0699 40.2843 77.846C40.2843 77.6221 40.4575 77.4912 40.6941 77.4912C40.9307 77.4912 41.1039 77.6221 41.1039 77.846C41.1039 78.0699 40.9307 78.2009 40.6941 78.2009ZM44.8772 77.2335C45.0504 77.0983 45.1602 76.904 45.1602 76.6378C45.1602 76.0633 44.7209 75.7592 44.1759 75.7592C43.631 75.7592 43.1917 76.0633 43.1917 76.6378C43.1917 76.904 43.3015 77.0983 43.4747 77.2335C43.2255 77.394 43.0903 77.6517 43.0903 77.9432C43.0903 78.4839 43.4789 78.8345 44.1759 78.8345C44.873 78.8345 45.2616 78.4839 45.2616 77.9432C45.2616 77.6517 45.1264 77.394 44.8772 77.2335ZM44.1759 76.3928C44.366 76.3928 44.4843 76.5153 44.4843 76.6801C44.4843 76.8448 44.366 76.9673 44.1759 76.9673C43.9858 76.9673 43.8676 76.8448 43.8676 76.6801C43.8676 76.5153 43.9858 76.3928 44.1759 76.3928ZM44.1759 78.2009C43.9394 78.2009 43.7662 78.0699 43.7662 77.846C43.7662 77.6221 43.9394 77.4912 44.1759 77.4912C44.4125 77.4912 44.5857 77.6221 44.5857 77.846C44.5857 78.0699 44.4125 78.2009 44.1759 78.2009ZM48.7266 76.8026C48.7266 76.19 48.283 75.7592 47.6282 75.7592C46.9777 75.7592 46.5299 76.19 46.5299 76.8026C46.5299 77.3771 46.927 77.7953 47.5142 77.8418L46.8721 78.7754H47.6493L48.5534 77.4025C48.6632 77.2377 48.7266 77.0307 48.7266 76.8026ZM47.2058 76.8026C47.2058 76.5449 47.4043 76.3928 47.6282 76.3928C47.8563 76.3928 48.0507 76.5407 48.0507 76.8026C48.0507 77.0645 47.8563 77.2124 47.6282 77.2124C47.4043 77.2124 47.2058 77.0603 47.2058 76.8026ZM50.1188 77.8164H51.7241V77.2081H50.1188V77.8164ZM52.7789 75.8183V76.4689H53.9702L53.0408 78.7754H53.7589L54.7221 76.3844V75.8183H52.7789ZM57.6949 77.2335C57.8681 77.0983 57.9779 76.904 57.9779 76.6378C57.9779 76.0633 57.5385 75.7592 56.9936 75.7592C56.4486 75.7592 56.0093 76.0633 56.0093 76.6378C56.0093 76.904 56.1191 77.0983 56.2923 77.2335C56.0431 77.394 55.9079 77.6517 55.9079 77.9432C55.9079 78.4839 56.2966 78.8345 56.9936 78.8345C57.6906 78.8345 58.0793 78.4839 58.0793 77.9432C58.0793 77.6517 57.9441 77.394 57.6949 77.2335ZM56.9936 76.3928C57.1837 76.3928 57.302 76.5153 57.302 76.6801C57.302 76.8448 57.1837 76.9673 56.9936 76.9673C56.8035 76.9673 56.6852 76.8448 56.6852 76.6801C56.6852 76.5153 56.8035 76.3928 56.9936 76.3928ZM56.9936 78.2009C56.757 78.2009 56.5838 78.0699 56.5838 77.846C56.5838 77.6221 56.757 77.4912 56.9936 77.4912C57.2302 77.4912 57.4034 77.6221 57.4034 77.846C57.4034 78.0699 57.2302 78.2009 56.9936 78.2009ZM60.5937 78.8345C61.3583 78.8345 61.7977 78.2093 61.7977 77.2968C61.7977 76.3844 61.3583 75.7592 60.5937 75.7592C59.8291 75.7592 59.3898 76.3844 59.3898 77.2968C59.3898 78.2093 59.8291 78.8345 60.5937 78.8345ZM60.5937 78.1755C60.2389 78.1755 60.0657 77.8671 60.0657 77.2968C60.0657 76.7265 60.2389 76.4182 60.5937 76.4182C60.9486 76.4182 61.1218 76.7265 61.1218 77.2968C61.1218 77.8671 60.9486 78.1755 60.5937 78.1755ZM65.3879 77.677H65.0922V77.0434H64.4079V77.677H63.7911L64.7332 75.8183H64.0066L63.0645 77.677V78.3023H64.4079V78.7754H65.0922V78.3023H65.3879V77.677Z" fill="#264861"/>
</g>
<defs>
<clipPath id="clip0">
<rect width="80" height="80" fill="white"/>
</clipPath>
</defs>
</svg>
